# xmcd
#
# Track frame offsets: 
#        150
#        16435
#        28862
#        43247
#        56747
#        72577
#        91710
#        108922
#        128182
#        140037
#        154810
#        172617
#        184275
#        201880
#        216380
#        228590
#        239402
#
# Disc length: 3405 seconds
#
# Revision: 1
# Processed by: cddbd v1.5.2PL0 Copyright (c) Steve Scherf et al.
# Submitted via: ExactAudioCopy v0.99pb3
#
DISCID=fb0d4b11
DTITLE=Various Artist - Country Roads
DYEAR=2002
DGENRE=Country
TTITLE0=Kenny Rogers - Lucille
TTITLE1=Charlie Rich - The Most Beautiful Girl In The World
TTITLE2=Glen Campbell - Rhinestone Cowboy
TTITLE3=Dr Hook - When You're In Love With A Beautiful Woman
TTITLE4=Nitty Gritty Dirt Band - An American Dream 
TTITLE5=Dan Seals - Addicted 
TTITLE6=Don Williams - Old Coyote Town 
TTITLE7=Bobby Gentry - Ode To Billie Jo 
TTITLE8=Crystal Gale - Don't It Make Me Brown Eyes Blue 
TTITLE9=Olivia Newton John - Banks Of The Ohio 
TTITLE10=Marie Osmond and Dan Seals - Meet Me In Montana 
TTITLE11=Bobby Gentry and Glen Campbell - All I Have To Do Is Dream 
TTITLE12=Bonnie Raitt - Nick Of Time
TTITLE13=Tanya Tucker - Just Another Love 
TTITLE14=Wanda Jackson - Stand By Your Man 
TTITLE15=Hank Cochran and Willie Nelson - Ain't Life Hell 
TTITLE16=Kenny Rogers - Gambler 
EXTD=
EXTT0=
EXTT1=
EXTT2=
EXTT3=
EXTT4=
EXTT5=
EXTT6=
EXTT7=
EXTT8=
EXTT9=
EXTT10=
EXTT11=
EXTT12=
EXTT13=
EXTT14=
EXTT15=
EXTT16=
PLAYORDER=
